# xmcd
#
# Track frame offsets:
#	150
#	15345
#	34601
#	53443
#	67622
#	81473
#	96550
#	114324
#	128972
#	141224
#	160143
#	172830
#	190295
#	204882
#	221864
#	236690
#	251534
#
# Disc length: 3549 seconds
#
# Revision: 0
# Processed by: cddbd v1.5.2PL0 Copyright (c) Steve Scherf et al.
# Submitted via: dBpowerAMP V4.0
#
DISCID=df0ddb11
DTITLE=Various Artist - New Coungty 9
DYEAR=1900
DGENRE=Country
TTITLE0=Luke Bryan - Drink A Beer
TTITLE1=Keith Urban - Cop Car
TTITLE2=The Band Perry - Don't Let Me Be Lonely
TTITLE3=Darius Rucker - Radio
TTITLE4=Lady Antebellum - Compass
TTITLE5=Kacey Musgraves - Follow Your Arrow
TTITLE6=David Nail - Whatever She's Got
TTITLE7=Little Big Town - Sober
TTITLE8=Jess Moskaluke - Cheap Wine And Cigaretttes
TTITLE9=Dean Brody - Bounty
TTITLE10=Eric Paslay - Friday Night
TTITLE11=Billy Currington - We Are Tonight
TTITLE12=The Road Hammers - Get On Down The Road
TTITLE13=Bobby Wills - Crazy Enough
TTITLE14=Wes Mack - Our Soundtrack
TTITLE15=Tim Hicks - Buzz, Buzz, Buzzing
TTITLE16=Chad Brownlee - Fallin Over You
EXTD=
EXTT0=
EXTT1=
EXTT2=
EXTT3=
EXTT4=
EXTT5=
EXTT6=
EXTT7=
EXTT8=
EXTT9=
EXTT10=
EXTT11=
EXTT12=
EXTT13=
EXTT14=
EXTT15=
EXTT16=
PLAYORDER=
